<svg xmlns="http://www.w3.org/2000/svg" width="528" height="520" viewBox="0 0 528 520" fill="none">
  <path fill-rule="evenodd" clip-rule="evenodd" d="M277.511 2.33651C328.304 12.7533 359.202 62.2489 390.877 102.67C414.426 132.722 416.366 172.356 436.23 204.882C459.777 243.439 506.541 266.476 517.572 310.127C530.814 362.526 536.635 425.668 502.764 468.158C468.899 510.64 405.171 520.589 350.29 519.974C302.416 519.437 268.311 473.075 221.142 465.003C164.253 455.267 99.0188 501.053 51.4636 468.836C5.45856 437.669 3.1174 370.257 0.29169 315.382C-2.36465 263.796 13.4074 214.32 35.9556 167.672C58.2217 121.607 86.4981 78.1099 129.063 48.976C172.582 19.1885 225.608 -8.30801 277.511 2.33651Z" fill="url(#paint0_linear_281_630)"/>
  <defs>
    <linearGradient id="paint0_linear_281_630" x1="264" y1="0" x2="264" y2="520" gradientUnits="userSpaceOnUse">
      <stop stop-color="#ECECFF"/>
      <stop offset="1" stop-color="#8688FF"/>
    </linearGradient>
  </defs>
</svg>